<svg width="24" height="24" viewBox="0 0 24 24" fill="none" xmlns="http://www.w3.org/2000/svg">
<path d="M18.5334 7.33331L17.7239 18.6663C17.6542 19.6431 16.8414 20.4 15.862 20.4H8.1382C7.15888 20.4 6.34605 19.6431 6.27628 18.6663L5.46678 7.33331H9.20011V4.53331C9.20011 4.01784 9.61798 3.59998 10.1334 3.59998H13.8668C14.3822 3.59998 14.8001 4.01784 14.8001 4.53331V7.33331H18.5334Z" fill="white"/>
<path d="M18.5334 7.33331L17.7239 18.6663C17.6542 19.6431 16.8414 20.4 15.862 20.4H8.1382C7.15888 20.4 6.34605 19.6431 6.27628 18.6663L5.46678 7.33331M10.1334 11.0666V16.6666M13.8668 11.0666V16.6666M14.8001 7.33331V4.53331C14.8001 4.01784 14.3822 3.59998 13.8668 3.59998H10.1334C9.61798 3.59998 9.20011 4.01784 9.20011 4.53331V7.33331M4.53345 7.33331H19.4668" stroke="#EF4444" stroke-width="1.67" stroke-linecap="round" stroke-linejoin="round"/>
</svg>
